<?xml version="1.0" encoding="utf-8"?>
<!-- Uploaded to: SVG Repo, www.svgrepo.com, Generator: SVG Repo Mixer Tools -->
<svg width="800px" height="800px" viewBox="0 0 1024 1024" class="icon"  version="1.1" xmlns="http://www.w3.org/2000/svg"><path d="M609.472 381.573c-10.314 0-18.676 8.364-18.676 18.679V717.77c0 10.316 8.362 18.679 18.676 18.679 10.316 0 18.679-8.364 18.679-18.679V400.253c0-10.316-8.364-18.68-18.679-18.68z m-224.129 0c-10.316 0-18.678 8.364-18.678 18.679V717.77c0 10.316 8.362 18.679 18.678 18.679s18.678-8.364 18.678-18.679V400.253c-0.001-10.316-8.363-18.68-18.678-18.68zM852.282 250.83H665.506v-18.678c0-92.839-75.261-168.098-168.098-168.098-92.839 0-168.098 75.26-168.098 168.098v18.678H142.534c-10.316 0-18.678 8.364-18.678 18.679 0 10.316 8.362 18.676 18.678 18.676h37.353v345.537c0 180.519 146.341 326.856 326.858 326.856 180.519 0 308.182-146.337 308.182-326.856V288.185h37.355c10.316 0 18.676-8.36 18.676-18.676 0-10.315-8.36-18.679-18.676-18.679z m-485.617-20.114c0-71.414 58.534-129.307 130.743-129.307 72.208 0 130.743 57.893 130.743 129.307v20.114H366.665v-20.114z m410.907 403.007c0 159.888-110.939 289.501-270.827 289.501S217.242 793.61 217.242 633.723l0.002-345.537h560.328v345.537z" fill="#E21B1B" /></svg>